<?xml version="1.0" encoding="utf-8"?>
<!-- Generator: Adobe Illustrator 19.0.0, SVG Export Plug-In . SVG Version: 6.00 Build 0)  -->
<svg version="1.1" id="Layer_1" xmlns="http://www.w3.org/2000/svg" xmlns:xlink="http://www.w3.org/1999/xlink" x="0px" y="0px"
	 viewBox="-264.9 49 123.4 34.8" style="enable-background:new -264.9 49 123.4 34.8;" xml:space="preserve">
<style type="text/css">
	.st0{fill:#49C5B6;}
	.st1{fill:#FFFFFF;}
</style>
<g>
	<g>
		<g>
			<path class="st0" d="M-261.6,72.5V60.2c0-4.5,3.6-8.1,8.1-8.1h12.3c4.5,0,8.1,3.6,8.1,8.1v12.3c0,4.5-3.6,8.1-8.1,8.1h-12.3
				C-258,80.6-261.6,77-261.6,72.5z M-235.5,60.2c0-3.1-2.5-5.7-5.7-5.7h-12.3c-3.1,0-5.7,2.5-5.7,5.7v12.3c0,3.1,2.5,5.7,5.7,5.7
				h12.3c3.1,0,5.7-2.5,5.7-5.7V60.2z"/>
		</g>
		<g>
			<path class="st0" d="M-254.6,66.4c0-4,3.3-7.3,7.3-7.3c4,0,7.3,3.3,7.3,7.3s-3.3,7.3-7.3,7.3C-251.4,73.7-254.6,70.4-254.6,66.4z
				 M-242.5,66.4c0-2.7-2.2-4.9-4.9-4.9s-4.9,2.2-4.9,4.9c0,2.7,2.2,4.9,4.9,4.9S-242.5,69.1-242.5,66.4z"/>
		</g>
		<g>
			<circle class="st0" cx="-241.7" cy="72.3" r="1.8"/>
		</g>
	</g>
</g>
<g>
	<path class="st1" d="M-222.9,72.4c-0.9-0.3-1.6-0.6-2.1-1l0.9-1.7c0.5,0.4,1.2,0.7,1.9,0.9c0.8,0.2,1.5,0.3,2.3,0.3
		c1.9,0,2.8-0.5,2.8-1.6c0-0.4-0.1-0.6-0.4-0.9c-0.3-0.2-0.6-0.4-1-0.5c-0.4-0.1-0.9-0.2-1.6-0.3c-1-0.1-1.7-0.3-2.4-0.5
		c-0.6-0.2-1.1-0.5-1.6-1c-0.4-0.5-0.7-1.1-0.7-2c0-1.1,0.5-1.9,1.4-2.6c0.9-0.7,2.1-1,3.6-1c0.8,0,1.6,0.1,2.4,0.3
		c0.8,0.2,1.4,0.5,2,0.8l-0.9,1.7c-1-0.6-2.1-0.9-3.4-0.9c-0.9,0-1.6,0.2-2.1,0.5c-0.5,0.3-0.7,0.7-0.7,1.2c0,0.4,0.1,0.7,0.4,0.9
		c0.3,0.2,0.6,0.4,1,0.5c0.4,0.1,1,0.2,1.7,0.4c1,0.2,1.7,0.3,2.3,0.5c0.6,0.2,1.1,0.5,1.5,1c0.4,0.5,0.6,1.1,0.6,1.9
		c0,1.1-0.5,1.9-1.4,2.6c-0.9,0.6-2.2,1-3.8,1C-221.1,72.8-222,72.7-222.9,72.4z"/>
	<path class="st1" d="M-195.7,74.1c-0.5,0.6-1.1,1.1-1.8,1.4c-0.7,0.3-1.4,0.5-2.2,0.5c-1,0-1.9-0.2-2.8-0.7c-0.9-0.5-1.9-1.3-3-2.4
		c-1.5-0.1-2.8-0.5-4-1.2c-1.2-0.7-2.1-1.7-2.8-2.9c-0.7-1.2-1-2.5-1-4c0-1.5,0.4-2.9,1.1-4.1c0.7-1.2,1.7-2.2,3-2.9
		c1.3-0.7,2.7-1,4.3-1c1.6,0,3,0.3,4.3,1c1.3,0.7,2.3,1.7,3,2.9c0.7,1.2,1.1,2.6,1.1,4.1c0,1.3-0.3,2.5-0.8,3.6
		c-0.5,1.1-1.2,2-2.2,2.7s-2,1.2-3.2,1.5c0.5,0.6,1,1,1.5,1.2c0.5,0.2,1,0.4,1.5,0.4c1.1,0,2.1-0.5,2.9-1.4L-195.7,74.1z
		 M-210.2,67.9c0.5,0.9,1.3,1.6,2.2,2.2c0.9,0.5,2,0.8,3.1,0.8c1.1,0,2.2-0.3,3.1-0.8c0.9-0.5,1.7-1.3,2.2-2.2
		c0.5-0.9,0.8-2,0.8-3.1c0-1.1-0.3-2.2-0.8-3.1c-0.5-0.9-1.3-1.6-2.2-2.2c-0.9-0.5-2-0.8-3.1-0.8c-1.2,0-2.2,0.3-3.1,0.8
		c-0.9,0.5-1.7,1.3-2.2,2.2c-0.5,0.9-0.8,2-0.8,3.1C-211,66-210.7,67-210.2,67.9z"/>
	<path class="st1" d="M-182.2,60.8v11.9h-2v-1.8c-0.4,0.6-1,1.1-1.7,1.4c-0.7,0.3-1.5,0.5-2.3,0.5c-1.6,0-2.8-0.4-3.8-1.3
		c-0.9-0.9-1.4-2.2-1.4-3.9v-6.9h2.2v6.6c0,1.2,0.3,2,0.8,2.6c0.6,0.6,1.4,0.9,2.4,0.9c1.1,0,2-0.3,2.7-1c0.7-0.7,1-1.7,1-2.9v-6.2
		H-182.2z"/>
	<path class="st1" d="M-169.9,61.9c0.9,0.8,1.3,2,1.3,3.6v7.2h-2.1v-1.6c-0.4,0.6-0.9,1-1.5,1.3c-0.7,0.3-1.5,0.4-2.4,0.4
		c-1.3,0-2.4-0.3-3.2-1c-0.8-0.6-1.2-1.5-1.2-2.5c0-1.1,0.4-1.9,1.1-2.5c0.8-0.6,2-1,3.7-1h3.4v-0.4c0-0.9-0.3-1.6-0.8-2.1
		c-0.5-0.5-1.3-0.7-2.4-0.7c-0.7,0-1.4,0.1-2.1,0.3c-0.7,0.2-1.2,0.5-1.7,0.9l-0.9-1.6c0.6-0.5,1.4-0.9,2.2-1.1
		c0.9-0.3,1.8-0.4,2.7-0.4C-172.1,60.7-170.8,61.1-169.9,61.9z M-172.1,70.6c0.6-0.4,1-0.9,1.3-1.6v-1.7h-3.3
		c-1.8,0-2.7,0.6-2.7,1.8c0,0.6,0.2,1.1,0.7,1.4c0.5,0.3,1.1,0.5,1.9,0.5S-172.7,71-172.1,70.6z"/>
	<path class="st1" d="M-160.8,61.2c0.7-0.4,1.6-0.5,2.7-0.5v2.1c-0.1,0-0.3,0-0.5,0c-1.2,0-2.1,0.3-2.8,1s-1,1.7-1,3v5.9h-2.2V60.8
		h2.1v2C-162.1,62.1-161.6,61.6-160.8,61.2z"/>
	<path class="st1" d="M-144.9,67.5h-9.7c0.1,1.1,0.6,1.9,1.4,2.5c0.8,0.6,1.8,1,2.9,1c1.4,0,2.6-0.5,3.4-1.4l1.2,1.4
		c-0.5,0.6-1.2,1.1-2,1.4c-0.8,0.3-1.7,0.5-2.7,0.5c-1.3,0-2.4-0.3-3.4-0.8c-1-0.5-1.7-1.2-2.3-2.2c-0.5-0.9-0.8-2-0.8-3.2
		c0-1.2,0.3-2.2,0.8-3.1c0.5-0.9,1.2-1.7,2.1-2.2c0.9-0.5,1.9-0.8,3.1-0.8c1.1,0,2.2,0.3,3.1,0.8c0.9,0.5,1.6,1.2,2.1,2.2
		c0.5,0.9,0.8,2,0.8,3.2C-144.8,67-144.8,67.2-144.9,67.5z M-153.3,63.4c-0.7,0.6-1.1,1.5-1.2,2.5h7.7c-0.1-1-0.5-1.8-1.2-2.5
		s-1.6-1-2.6-1S-152.6,62.8-153.3,63.4z"/>
</g>
</svg>
