<?xml version="1.0" encoding="UTF-8" standalone="no"?>
<!DOCTYPE svg PUBLIC "-//W3C//DTD SVG 1.1//EN" "http://www.w3.org/Graphics/SVG/1.1/DTD/svg11.dtd">
<svg version="1.1" xmlns="http://www.w3.org/2000/svg" xmlns:xlink="http://www.w3.org/1999/xlink" preserveAspectRatio="xMidYMid meet" viewBox="0 0 640 640" width="640" height="640"><defs><path d="M596 320C596 472.33 472.33 596 320 596C167.67 596 44 472.33 44 320C44 167.67 167.67 44 320 44C472.33 44 596 167.67 596 320Z" id="jl4spgs2j"></path><path d="M331.44 143.28C328.47 159.19 322.12 197.27 316.62 228.23C316 232 312.9 250.83 307.31 284.73C305.28 245.81 304.15 224.19 303.92 219.86C300.11 149.14 297.15 140.36 275.98 140.36C255.24 140.36 253.12 147.89 250.16 227.81C248.47 268.41 248.89 302.3 251.01 303.56C253.12 304.81 278.95 308.58 308.58 311.51C338.21 314.44 366.15 318.62 370.38 321.13C385.2 328.67 375.04 334.94 343.29 337.03C299.69 339.96 300.11 344.99 348.79 385.16C392.4 421.15 398.32 427.84 388.16 431.61C383.93 433.28 372.08 427.01 356.41 414.45C342.44 403.99 328.9 395.62 325.93 396.46C323.39 397.29 334.82 412.78 351.33 431.19C380.54 462.58 387.74 475.13 376.73 475.13C373.77 475.13 357.68 461.74 340.75 445C323.82 428.26 309 416.13 307.73 417.38C306.04 418.64 314.93 433.28 326.78 450.02C339.06 467.18 347.52 482.66 346.25 486.43C342.44 495.63 334.4 488.94 309.85 457.55C279.37 418.64 270.48 419.05 290.8 458.39C297.57 471.78 299.69 479.73 296.73 481.82C291.22 485.17 289.95 483.92 265.4 445.84C233.65 396.04 160.84 298.95 150.68 292.26C131.63 280.12 107.08 296.86 112.58 318.2C115.97 330.76 200.21 471.36 220.95 498.98C245.5 531.2 275.56 544.18 322.55 544.18C364.03 543.76 386.89 534.55 404.25 511.95C420.34 490.61 422.88 484.34 444.89 409.43C456.32 370.93 472.41 320.71 480.87 297.7C496.96 253.76 499.07 241.21 491.03 233.25C483.84 226.14 468.6 226.98 461.4 235.35C457.59 239.53 447.01 257.94 437.69 276.36C427.96 294.77 420.34 307.32 419.91 304.39C419.91 301.47 427.96 267.99 437.27 230.33C453.78 164.63 454.63 160.86 447.85 150.82C439.39 138.26 420.34 136.59 410.18 147.47C406.79 151.65 395.78 182.62 385.62 216.93C375.89 250.83 367 277.61 366.15 276.78C365.3 275.94 369.54 240.79 375.46 198.94C385.2 129.06 385.62 121.52 379.7 112.74C372.08 101.02 352.18 99.35 342.44 108.97C339.06 112.32 333.98 127.8 331.44 143.28Z" id="d1FPALDWzU"></path></defs><g><g><g><use xlink:href="#jl4spgs2j" opacity="1" fill="#000000" fill-opacity="0"></use><g><use xlink:href="#jl4spgs2j" opacity="1" fill-opacity="0" stroke="#90a4ae" stroke-width="30" stroke-opacity="1"></use></g></g><g><use xlink:href="#d1FPALDWzU" opacity="1" fill="#3eacff" fill-opacity="1"></use><g><use xlink:href="#d1FPALDWzU" opacity="1" fill-opacity="0" stroke="#000000" stroke-width="1" stroke-opacity="0"></use></g></g></g></g></svg>