<?xml version="1.0" encoding="utf-8"?>
<!-- Generator: Adobe Illustrator 19.0.0, SVG Export Plug-In . SVG Version: 6.00 Build 0)  -->
<svg version="1.1" id="Layer_1" xmlns="http://www.w3.org/2000/svg" xmlns:xlink="http://www.w3.org/1999/xlink" x="0px" y="0px"
	 viewBox="-217 56.4 80 25.3" style="enable-background:new -217 56.4 80 25.3;" xml:space="preserve">
<style type="text/css">
	.st0{fill:#30373E;}
	.st1{fill:#323232;}
</style>
<g>
	<path class="st0" d="M-188.4,72.9c-0.6-0.2-1-0.4-1.3-0.6l0.6-1.1c0.3,0.2,0.7,0.4,1.2,0.6c0.5,0.1,0.9,0.2,1.4,0.2
		c1.2,0,1.8-0.3,1.8-1c0-0.2-0.1-0.4-0.2-0.5c-0.2-0.1-0.4-0.2-0.6-0.3c-0.2-0.1-0.6-0.1-1-0.2c-0.6-0.1-1.1-0.2-1.5-0.3
		c-0.4-0.1-0.7-0.3-1-0.6c-0.3-0.3-0.4-0.7-0.4-1.2c0-0.7,0.3-1.2,0.8-1.6s1.3-0.6,2.2-0.6c0.5,0,1,0.1,1.5,0.2
		c0.5,0.1,0.9,0.3,1.2,0.5l-0.6,1.1c-0.6-0.4-1.3-0.6-2.1-0.6c-0.6,0-1,0.1-1.3,0.3c-0.3,0.2-0.4,0.4-0.4,0.7c0,0.2,0.1,0.4,0.3,0.6
		c0.2,0.1,0.4,0.2,0.6,0.3c0.2,0.1,0.6,0.1,1,0.2c0.6,0.1,1.1,0.2,1.4,0.3s0.7,0.3,0.9,0.6c0.3,0.3,0.4,0.7,0.4,1.2
		c0,0.7-0.3,1.2-0.9,1.6c-0.6,0.4-1.3,0.6-2.3,0.6C-187.2,73.2-187.8,73.1-188.4,72.9z"/>
	<path class="st0" d="M-171.5,74c-0.3,0.4-0.7,0.7-1.1,0.8c-0.4,0.2-0.9,0.3-1.3,0.3c-0.6,0-1.2-0.1-1.7-0.4
		c-0.5-0.3-1.1-0.8-1.8-1.5c-0.9,0-1.7-0.3-2.5-0.7s-1.3-1-1.7-1.8c-0.4-0.7-0.6-1.6-0.6-2.5c0-0.9,0.2-1.8,0.7-2.5
		c0.4-0.8,1.1-1.4,1.9-1.8c0.8-0.4,1.7-0.6,2.7-0.6c1,0,1.9,0.2,2.6,0.6c0.8,0.4,1.4,1,1.8,1.8c0.4,0.8,0.7,1.6,0.7,2.6
		c0,0.8-0.2,1.5-0.5,2.2c-0.3,0.7-0.8,1.2-1.3,1.7s-1.2,0.8-2,0.9c0.3,0.3,0.6,0.6,0.9,0.7c0.3,0.2,0.6,0.2,0.9,0.2
		c0.7,0,1.3-0.3,1.8-0.8L-171.5,74z M-180.5,70.1c0.3,0.6,0.8,1,1.4,1.3c0.6,0.3,1.2,0.5,1.9,0.5c0.7,0,1.3-0.2,1.9-0.5
		c0.6-0.3,1-0.8,1.4-1.3c0.3-0.6,0.5-1.2,0.5-1.9c0-0.7-0.2-1.3-0.5-1.9c-0.3-0.6-0.8-1-1.4-1.3c-0.6-0.3-1.2-0.5-1.9-0.5
		c-0.7,0-1.4,0.2-1.9,0.5c-0.6,0.3-1,0.8-1.4,1.3c-0.3,0.6-0.5,1.2-0.5,1.9C-181,68.9-180.8,69.6-180.5,70.1z"/>
	<path class="st0" d="M-163.2,65.7v7.4h-1.3V72c-0.3,0.4-0.6,0.7-1.1,0.9c-0.4,0.2-0.9,0.3-1.4,0.3c-1,0-1.8-0.3-2.3-0.8
		c-0.6-0.5-0.8-1.3-0.8-2.4v-4.2h1.3v4.1c0,0.7,0.2,1.3,0.5,1.6s0.8,0.5,1.5,0.5c0.7,0,1.3-0.2,1.7-0.6s0.6-1,0.6-1.8v-3.8H-163.2z"
		/>
	<path class="st0" d="M-155.7,66.4c0.5,0.5,0.8,1.2,0.8,2.2v4.4h-1.3v-1c-0.2,0.3-0.5,0.6-1,0.8c-0.4,0.2-0.9,0.3-1.5,0.3
		c-0.8,0-1.5-0.2-2-0.6c-0.5-0.4-0.7-0.9-0.7-1.6c0-0.6,0.2-1.2,0.7-1.6s1.2-0.6,2.3-0.6h2.1v-0.3c0-0.6-0.2-1-0.5-1.3
		c-0.3-0.3-0.8-0.5-1.5-0.5c-0.4,0-0.9,0.1-1.3,0.2c-0.4,0.1-0.8,0.3-1.1,0.6l-0.6-1c0.4-0.3,0.8-0.5,1.4-0.7
		c0.5-0.2,1.1-0.2,1.7-0.2C-157,65.6-156.2,65.9-155.7,66.4z M-157,71.8c0.4-0.2,0.6-0.5,0.8-1v-1h-2.1c-1.1,0-1.7,0.4-1.7,1.1
		c0,0.4,0.1,0.7,0.4,0.9c0.3,0.2,0.7,0.3,1.2,0.3S-157.3,72-157,71.8z"/>
	<path class="st0" d="M-150.1,66c0.5-0.2,1-0.3,1.7-0.3v1.3c-0.1,0-0.2,0-0.3,0c-0.7,0-1.3,0.2-1.7,0.6s-0.6,1-0.6,1.8v3.7h-1.3
		v-7.4h1.3v1.2C-150.9,66.5-150.5,66.2-150.1,66z"/>
	<path class="st0" d="M-140.2,69.8h-6c0.1,0.6,0.4,1.2,0.9,1.6c0.5,0.4,1.1,0.6,1.8,0.6c0.9,0,1.6-0.3,2.1-0.9l0.7,0.9
		c-0.3,0.4-0.7,0.7-1.2,0.9c-0.5,0.2-1,0.3-1.7,0.3c-0.8,0-1.5-0.2-2.1-0.5c-0.6-0.3-1.1-0.8-1.4-1.3c-0.3-0.6-0.5-1.2-0.5-1.9
		c0-0.7,0.2-1.4,0.5-1.9c0.3-0.6,0.8-1,1.3-1.3c0.6-0.3,1.2-0.5,1.9-0.5c0.7,0,1.3,0.2,1.9,0.5c0.6,0.3,1,0.8,1.3,1.3
		c0.3,0.6,0.5,1.2,0.5,2C-140.2,69.5-140.2,69.7-140.2,69.8z M-145.4,67.4c-0.4,0.4-0.7,0.9-0.8,1.5h4.7c-0.1-0.6-0.3-1.1-0.8-1.5
		s-1-0.6-1.6-0.6S-145,67-145.4,67.4z"/>
</g>
<g>
	<g>
		<g>
			<path class="st1" d="M-214.4,73.3v-8.5c0-3.1,2.5-5.6,5.6-5.6h8.5c3.1,0,5.6,2.5,5.6,5.6v8.5c0,3.1-2.5,5.6-5.6,5.6h-8.5
				C-211.9,78.9-214.4,76.4-214.4,73.3z M-196.3,64.7c0-2.2-1.8-3.9-3.9-3.9h-8.5c-2.2,0-3.9,1.8-3.9,3.9v8.5c0,2.2,1.8,3.9,3.9,3.9
				h8.5c2.2,0,3.9-1.8,3.9-3.9V64.7z"/>
		</g>
		<g>
			<path class="st1" d="M-209.6,69c0-2.8,2.3-5.1,5.1-5.1c2.8,0,5.1,2.3,5.1,5.1s-2.3,5.1-5.1,5.1C-207.3,74.1-209.6,71.8-209.6,69z
				 M-201.2,69c0-1.9-1.5-3.4-3.4-3.4c-1.9,0-3.4,1.5-3.4,3.4s1.5,3.4,3.4,3.4C-202.7,72.4-201.2,70.9-201.2,69z"/>
		</g>
		<g>
			<circle class="st1" cx="-200.6" cy="73.1" r="1.2"/>
		</g>
	</g>
</g>
</svg>
